<svg width="20" height="20" viewBox="0 0 20 20" fill="none" xmlns="http://www.w3.org/2000/svg">
<path d="M10.0022 15.8334C9.83672 15.8343 9.67466 15.786 9.53673 15.6945C9.3988 15.603 9.29124 15.4725 9.22777 15.3196C9.16429 15.1667 9.14778 14.9984 9.18034 14.8361C9.2129 14.6738 9.29305 14.5249 9.41058 14.4084L13.8272 10L9.41058 5.59169C9.27405 5.43227 9.20272 5.22721 9.21082 5.01748C9.21892 4.80775 9.30586 4.6088 9.45427 4.46039C9.60269 4.31197 9.80163 4.22503 10.0114 4.21693C10.2211 4.20883 10.4262 4.28017 10.5856 4.41669L15.5856 9.41669C15.7408 9.57282 15.8279 9.78403 15.8279 10.0042C15.8279 10.2243 15.7408 10.4356 15.5856 10.5917L10.5856 15.5917C10.4304 15.7456 10.2209 15.8324 10.0022 15.8334Z" fill="#0F0D1D"/>
<path d="M5.00224 15.8332C4.83672 15.8341 4.67466 15.7858 4.53673 15.6943C4.3988 15.6028 4.29124 15.4723 4.22777 15.3194C4.16429 15.1665 4.14778 14.9982 4.18034 14.8359C4.2129 14.6736 4.29305 14.5247 4.41058 14.4082L8.82724 9.99983L4.41058 5.5915C4.25366 5.43458 4.1655 5.22175 4.1655 4.99983C4.1655 4.77791 4.25366 4.56508 4.41058 4.40816C4.5675 4.25124 4.78032 4.16309 5.00224 4.16309C5.22416 4.16309 5.43699 4.25124 5.59391 4.40816L10.5939 9.40816C10.7491 9.5643 10.8362 9.77551 10.8362 9.99566C10.8362 10.2158 10.7491 10.427 10.5939 10.5832L5.59391 15.5832C5.51673 15.6619 5.42469 15.7245 5.32313 15.7675C5.22157 15.8104 5.1125 15.8327 5.00224 15.8332Z" fill="#0F0D1D"/>
</svg>
