<svg width="44" height="35" viewBox="0 0 44 35" fill="none" xmlns="http://www.w3.org/2000/svg">
<path fill-rule="evenodd" clip-rule="evenodd" d="M24.3496 15.3915V32.6508C24.3496 33.9426 23.2921 34.9996 21.9998 34.9996C20.7075 34.9996 19.65 33.9426 19.65 32.6508V15.3915C19.65 14.0997 20.7075 13.0426 21.9998 13.0426C23.2925 13.0426 24.3496 14.0997 24.3496 15.3915ZM34.2519 10.5051C39.8254 11.7168 44 16.6759 44 22.6103C44 29.4526 38.451 34.9996 31.6055 34.9996H28.9331C27.7482 34.9996 26.7609 34.111 26.605 32.9676H26.5833V32.6508V30.302V20.4505C26.5833 19.1587 27.6408 18.1017 28.9331 18.1017C30.2254 18.1017 31.2829 19.1587 31.2829 20.4505V30.3023H31.6058C35.8569 30.3023 39.3007 26.8599 39.3007 22.6106C39.3007 18.9998 36.7793 15.8623 33.2533 15.0957L30.0941 14.4088L29.6066 11.2141C29.0345 7.46858 25.7918 4.69768 22.0002 4.69768C18.2085 4.69768 14.9655 7.46858 14.3937 11.2137L13.9062 14.4084L10.747 15.0954C7.22108 15.862 4.69963 18.9998 4.69963 22.6103C4.69963 26.8596 8.14346 30.302 12.3945 30.302H12.7174V20.4505C12.7174 19.1587 13.7749 18.1017 15.0673 18.1017C16.3596 18.1017 17.4171 19.1587 17.4171 20.4505V30.3023V32.6512V32.968H17.3953C17.2395 34.1113 16.2522 35 15.0673 35H12.3949C5.54901 34.9996 0 29.4526 0 22.6103C0 16.6759 4.17456 11.7168 9.74814 10.5051C10.6561 4.557 15.7955 0 22.0002 0C28.2048 0 33.3442 4.557 34.2519 10.5051Z" fill="#384BFF"/>
</svg>
