<svg width="186" height="35" viewBox="0 0 186 35" fill="none" xmlns="http://www.w3.org/2000/svg">
<path fill-rule="evenodd" clip-rule="evenodd" d="M24.3496 15.3915V32.6508C24.3496 33.9426 23.2921 34.9996 21.9998 34.9996C20.7075 34.9996 19.65 33.9426 19.65 32.6508V15.3915C19.65 14.0997 20.7075 13.0426 21.9998 13.0426C23.2925 13.0426 24.3496 14.0997 24.3496 15.3915ZM34.2519 10.5051C39.8254 11.7168 44 16.6759 44 22.6103C44 29.4526 38.451 34.9996 31.6055 34.9996H28.9331C27.7482 34.9996 26.7609 34.111 26.605 32.9676H26.5833V32.6508V30.302V20.4505C26.5833 19.1587 27.6408 18.1017 28.9331 18.1017C30.2254 18.1017 31.2829 19.1587 31.2829 20.4505V30.3023H31.6058C35.8569 30.3023 39.3007 26.8599 39.3007 22.6106C39.3007 18.9998 36.7793 15.8623 33.2533 15.0957L30.0941 14.4088L29.6066 11.2141C29.0345 7.46858 25.7918 4.69768 22.0002 4.69768C18.2085 4.69768 14.9655 7.46858 14.3937 11.2137L13.9062 14.4084L10.747 15.0954C7.22108 15.862 4.69963 18.9998 4.69963 22.6103C4.69963 26.8596 8.14346 30.302 12.3945 30.302H12.7174V20.4505C12.7174 19.1587 13.7749 18.1017 15.0673 18.1017C16.3596 18.1017 17.4171 19.1587 17.4171 20.4505V30.3023V32.6512V32.968H17.3953C17.2395 34.1113 16.2522 35 15.0673 35H12.3949C5.54901 34.9996 0 29.4526 0 22.6103C0 16.6759 4.17456 11.7168 9.74814 10.5051C10.6561 4.557 15.7955 0 22.0002 0C28.2048 0 33.3442 4.557 34.2519 10.5051Z" fill="#384BFF"/>
<path d="M55.7615 29V5.72729H61.3865V15.0682H70.5569V5.72729H76.1706V29H70.5569V19.6477H61.3865V29H55.7615ZM87.8467 29.3295C86.0134 29.3295 84.4376 28.9545 83.1194 28.2045C81.8088 27.447 80.7974 26.3939 80.0853 25.0455C79.3808 23.6894 79.0285 22.1174 79.0285 20.3295C79.0285 18.5341 79.3808 16.9621 80.0853 15.6136C80.7974 14.2576 81.8088 13.2045 83.1194 12.4545C84.4376 11.697 86.0134 11.3182 87.8467 11.3182C89.68 11.3182 91.252 11.697 92.5626 12.4545C93.8808 13.2045 94.8921 14.2576 95.5967 15.6136C96.3088 16.9621 96.6649 18.5341 96.6649 20.3295C96.6649 22.1174 96.3088 23.6894 95.5967 25.0455C94.8921 26.3939 93.8808 27.447 92.5626 28.2045C91.252 28.9545 89.68 29.3295 87.8467 29.3295ZM87.8808 25.1364C88.5474 25.1364 89.1118 24.9318 89.574 24.5227C90.0361 24.1136 90.3884 23.5455 90.6308 22.8182C90.8808 22.0909 91.0058 21.25 91.0058 20.2955C91.0058 19.3258 90.8808 18.4773 90.6308 17.75C90.3884 17.0227 90.0361 16.4545 89.574 16.0455C89.1118 15.6364 88.5474 15.4318 87.8808 15.4318C87.1914 15.4318 86.6081 15.6364 86.1308 16.0455C85.6611 16.4545 85.3012 17.0227 85.0512 17.75C84.8088 18.4773 84.6876 19.3258 84.6876 20.2955C84.6876 21.25 84.8088 22.0909 85.0512 22.8182C85.3012 23.5455 85.6611 24.1136 86.1308 24.5227C86.6081 24.9318 87.1914 25.1364 87.8808 25.1364ZM114.75 16.875L109.648 17.0114C109.595 16.6477 109.451 16.3258 109.216 16.0455C108.981 15.7576 108.674 15.5341 108.295 15.375C107.924 15.2083 107.492 15.125 107 15.125C106.356 15.125 105.807 15.2538 105.352 15.5114C104.905 15.7689 104.686 16.1174 104.693 16.5568C104.686 16.8977 104.822 17.1932 105.102 17.4432C105.39 17.6932 105.902 17.8939 106.636 18.0455L110 18.6818C111.742 19.0152 113.038 19.5682 113.886 20.3409C114.742 21.1136 115.174 22.1364 115.182 23.4091C115.174 24.6061 114.818 25.6477 114.114 26.5341C113.417 27.4205 112.462 28.1098 111.25 28.6023C110.038 29.0871 108.652 29.3295 107.091 29.3295C104.598 29.3295 102.633 28.8182 101.193 27.7955C99.7615 26.7652 98.9433 25.3864 98.7387 23.6591L104.227 23.5227C104.348 24.1591 104.663 24.6439 105.17 24.9773C105.678 25.3106 106.326 25.4773 107.114 25.4773C107.826 25.4773 108.405 25.3447 108.852 25.0795C109.299 24.8144 109.527 24.4621 109.534 24.0227C109.527 23.6288 109.352 23.3144 109.011 23.0795C108.67 22.8371 108.136 22.6477 107.409 22.5114L104.364 21.9318C102.614 21.6136 101.311 21.0265 100.455 20.1705C99.5986 19.3068 99.1743 18.2083 99.1819 16.875C99.1743 15.7083 99.4849 14.7121 100.114 13.8864C100.742 13.053 101.636 12.4167 102.795 11.9773C103.955 11.5379 105.322 11.3182 106.898 11.3182C109.261 11.3182 111.125 11.8144 112.489 12.8068C113.852 13.7917 114.606 15.1477 114.75 16.875ZM126.986 11.5455V14.7273H116.952V11.5455H126.986ZM119.429 7.36366H123.543V23.75C123.543 24.303 123.626 24.7273 123.793 25.0227C123.967 25.3106 124.194 25.5076 124.474 25.6136C124.755 25.7197 125.065 25.7727 125.406 25.7727C125.664 25.7727 125.899 25.7538 126.111 25.7159C126.33 25.678 126.497 25.6439 126.611 25.6136L127.304 28.8295C127.084 28.9053 126.77 28.9886 126.361 29.0795C125.959 29.1705 125.467 29.2235 124.884 29.2386C123.853 29.2689 122.925 29.1136 122.099 28.7727C121.274 28.4242 120.618 27.8864 120.134 27.1591C119.656 26.4318 119.421 25.5227 119.429 24.4318V7.36366ZM137.966 29.3409C136.216 29.3409 134.705 28.9773 133.432 28.25C132.167 27.5152 131.193 26.4773 130.511 25.1364C129.83 23.7879 129.489 22.2008 129.489 20.375C129.489 18.5795 129.83 17.0038 130.511 15.6477C131.201 14.2841 132.163 13.2235 133.398 12.4659C134.633 11.7008 136.083 11.3182 137.75 11.3182C138.826 11.3182 139.841 11.4924 140.795 11.8409C141.758 12.1818 142.606 12.7121 143.341 13.4318C144.083 14.1515 144.667 15.0682 145.091 16.1818C145.515 17.2879 145.727 18.6061 145.727 20.1364V21.3977H131.42V18.625H141.784C141.777 17.8371 141.606 17.1364 141.273 16.5227C140.939 15.9015 140.473 15.4129 139.875 15.0568C139.284 14.7008 138.595 14.5227 137.807 14.5227C136.966 14.5227 136.227 14.7273 135.591 15.1364C134.955 15.5379 134.458 16.0682 134.102 16.7273C133.754 17.3788 133.576 18.0947 133.568 18.875V21.2955C133.568 22.3106 133.754 23.1818 134.125 23.9091C134.496 24.6288 135.015 25.1818 135.682 25.5682C136.348 25.947 137.129 26.1364 138.023 26.1364C138.621 26.1364 139.163 26.053 139.648 25.8864C140.133 25.7121 140.553 25.4583 140.909 25.125C141.265 24.7917 141.534 24.3788 141.716 23.8864L145.557 24.3182C145.314 25.3333 144.852 26.2197 144.17 26.9773C143.496 27.7273 142.633 28.3106 141.58 28.7273C140.527 29.1364 139.322 29.3409 137.966 29.3409ZM156.821 29.3409C155.079 29.3409 153.582 28.9583 152.332 28.1932C151.09 27.428 150.132 26.3712 149.457 25.0227C148.791 23.6667 148.457 22.1061 148.457 20.3409C148.457 18.5682 148.798 17.0038 149.48 15.6477C150.162 14.2841 151.124 13.2235 152.366 12.4659C153.616 11.7008 155.094 11.3182 156.798 11.3182C158.215 11.3182 159.469 11.5795 160.56 12.1023C161.658 12.6174 162.533 13.3485 163.185 14.2955C163.836 15.2348 164.207 16.3333 164.298 17.5909H160.366C160.207 16.75 159.829 16.0492 159.23 15.4886C158.639 14.9205 157.848 14.6364 156.855 14.6364C156.014 14.6364 155.276 14.8636 154.639 15.3182C154.003 15.7652 153.507 16.4091 153.151 17.25C152.802 18.0909 152.628 19.0985 152.628 20.2727C152.628 21.4621 152.802 22.4848 153.151 23.3409C153.499 24.1894 153.988 24.8447 154.616 25.3068C155.253 25.7614 155.999 25.9886 156.855 25.9886C157.461 25.9886 158.003 25.875 158.48 25.6477C158.965 25.4129 159.37 25.0758 159.696 24.6364C160.022 24.197 160.245 23.6629 160.366 23.0341H164.298C164.2 24.2689 163.836 25.3636 163.207 26.3182C162.579 27.2652 161.723 28.0076 160.639 28.5455C159.556 29.0758 158.283 29.3409 156.821 29.3409ZM171.79 18.7727V29H167.676V5.72729H171.699V14.5114H171.903C172.313 13.5265 172.945 12.75 173.801 12.1818C174.665 11.6061 175.763 11.3182 177.097 11.3182C178.309 11.3182 179.366 11.572 180.267 12.0795C181.169 12.5871 181.866 13.3295 182.358 14.3068C182.858 15.2841 183.108 16.4773 183.108 17.8864V29H178.994V18.5227C178.994 17.3485 178.691 16.4356 178.085 15.7841C177.487 15.125 176.646 14.7955 175.562 14.7955C174.835 14.7955 174.184 14.9545 173.608 15.2727C173.04 15.5833 172.593 16.0341 172.267 16.625C171.949 17.2159 171.79 17.9318 171.79 18.7727Z" fill="#0F0D1D"/>
</svg>
