<svg width="186" height="35" viewBox="0 0 186 35" fill="none" xmlns="http://www.w3.org/2000/svg">
<path fill-rule="evenodd" clip-rule="evenodd" d="M24.3496 15.3915V32.6508C24.3496 33.9426 23.2921 34.9996 21.9998 34.9996C20.7075 34.9996 19.65 33.9426 19.65 32.6508V15.3915C19.65 14.0997 20.7075 13.0426 21.9998 13.0426C23.2925 13.0426 24.3496 14.0997 24.3496 15.3915ZM34.2519 10.5051C39.8254 11.7168 44 16.6759 44 22.6103C44 29.4526 38.451 34.9996 31.6055 34.9996H28.9331C27.7482 34.9996 26.7609 34.111 26.605 32.9676H26.5833V32.6508V30.302V20.4505C26.5833 19.1587 27.6408 18.1017 28.9331 18.1017C30.2254 18.1017 31.2829 19.1587 31.2829 20.4505V30.3023H31.6058C35.8569 30.3023 39.3007 26.8599 39.3007 22.6106C39.3007 18.9998 36.7793 15.8623 33.2533 15.0957L30.0941 14.4088L29.6066 11.2141C29.0345 7.46858 25.7918 4.69768 22.0002 4.69768C18.2085 4.69768 14.9655 7.46858 14.3937 11.2137L13.9062 14.4084L10.747 15.0954C7.22108 15.862 4.69963 18.9998 4.69963 22.6103C4.69963 26.8596 8.14346 30.302 12.3945 30.302H12.7174V20.4505C12.7174 19.1587 13.7749 18.1017 15.0673 18.1017C16.3596 18.1017 17.4171 19.1587 17.4171 20.4505V30.3023V32.6512V32.968H17.3953C17.2395 34.1113 16.2522 35 15.0673 35H12.3949C5.54901 34.9996 0 29.4526 0 22.6103C0 16.6759 4.17456 11.7168 9.74814 10.5051C10.6561 4.557 15.7955 0 22.0002 0C28.2048 0 33.3442 4.557 34.2519 10.5051Z" fill="white"/>
<path d="M55.7614 28.9998V5.72705H61.3864V15.068H70.5568V5.72705H76.1705V28.9998H70.5568V19.6475H61.3864V28.9998H55.7614ZM87.8466 29.3293C86.0133 29.3293 84.4375 28.9543 83.1193 28.2043C81.8087 27.4468 80.7973 26.3937 80.0852 25.0453C79.3807 23.6892 79.0284 22.1172 79.0284 20.3293C79.0284 18.5339 79.3807 16.9619 80.0852 15.6134C80.7973 14.2574 81.8087 13.2043 83.1193 12.4543C84.4375 11.6968 86.0133 11.318 87.8466 11.318C89.6799 11.318 91.2519 11.6968 92.5625 12.4543C93.8807 13.2043 94.892 14.2574 95.5966 15.6134C96.3087 16.9619 96.6648 18.5339 96.6648 20.3293C96.6648 22.1172 96.3087 23.6892 95.5966 25.0453C94.892 26.3937 93.8807 27.4468 92.5625 28.2043C91.2519 28.9543 89.6799 29.3293 87.8466 29.3293ZM87.8807 25.1362C88.5473 25.1362 89.1117 24.9316 89.5739 24.5225C90.036 24.1134 90.3883 23.5453 90.6307 22.818C90.8807 22.0907 91.0057 21.2498 91.0057 20.2953C91.0057 19.3256 90.8807 18.4771 90.6307 17.7498C90.3883 17.0225 90.036 16.4543 89.5739 16.0453C89.1117 15.6362 88.5473 15.4316 87.8807 15.4316C87.1913 15.4316 86.608 15.6362 86.1307 16.0453C85.661 16.4543 85.3011 17.0225 85.0511 17.7498C84.8087 18.4771 84.6875 19.3256 84.6875 20.2953C84.6875 21.2498 84.8087 22.0907 85.0511 22.818C85.3011 23.5453 85.661 24.1134 86.1307 24.5225C86.608 24.9316 87.1913 25.1362 87.8807 25.1362ZM114.75 16.8748L109.648 17.0112C109.595 16.6475 109.451 16.3256 109.216 16.0453C108.981 15.7574 108.674 15.5339 108.295 15.3748C107.924 15.2081 107.492 15.1248 107 15.1248C106.356 15.1248 105.807 15.2536 105.352 15.5112C104.905 15.7687 104.686 16.1172 104.693 16.5566C104.686 16.8975 104.822 17.193 105.102 17.443C105.39 17.693 105.902 17.8937 106.636 18.0453L110 18.6816C111.742 19.015 113.038 19.568 113.886 20.3407C114.742 21.1134 115.174 22.1362 115.182 23.4089C115.174 24.6059 114.818 25.6475 114.114 26.5339C113.417 27.4203 112.462 28.1096 111.25 28.6021C110.038 29.0869 108.652 29.3293 107.091 29.3293C104.598 29.3293 102.633 28.818 101.193 27.7953C99.7614 26.765 98.9432 25.3862 98.7386 23.6589L104.227 23.5225C104.348 24.1589 104.663 24.6437 105.17 24.9771C105.678 25.3104 106.326 25.4771 107.114 25.4771C107.826 25.4771 108.405 25.3445 108.852 25.0793C109.299 24.8142 109.527 24.4619 109.534 24.0225C109.527 23.6286 109.352 23.3142 109.011 23.0793C108.67 22.8369 108.136 22.6475 107.409 22.5112L104.364 21.9316C102.614 21.6134 101.311 21.0263 100.455 20.1703C99.5985 19.3066 99.1742 18.2081 99.1818 16.8748C99.1742 15.7081 99.4848 14.7119 100.114 13.8862C100.742 13.0528 101.636 12.4165 102.795 11.9771C103.955 11.5377 105.322 11.318 106.898 11.318C109.261 11.318 111.125 11.8142 112.489 12.8066C113.852 13.7915 114.606 15.1475 114.75 16.8748ZM126.986 11.5453V14.7271H116.952V11.5453H126.986ZM119.429 7.36342H123.543V23.7498C123.543 24.3028 123.626 24.7271 123.793 25.0225C123.967 25.3104 124.194 25.5074 124.474 25.6134C124.755 25.7195 125.065 25.7725 125.406 25.7725C125.664 25.7725 125.899 25.7536 126.111 25.7157C126.33 25.6778 126.497 25.6437 126.611 25.6134L127.304 28.8293C127.084 28.9051 126.77 28.9884 126.361 29.0793C125.959 29.1703 125.467 29.2233 124.884 29.2384C123.853 29.2687 122.925 29.1134 122.099 28.7725C121.274 28.424 120.618 27.8862 120.134 27.1589C119.656 26.4316 119.421 25.5225 119.429 24.4316V7.36342ZM137.966 29.3407C136.216 29.3407 134.705 28.9771 133.432 28.2498C132.167 27.515 131.193 26.4771 130.511 25.1362C129.83 23.7877 129.489 22.2006 129.489 20.3748C129.489 18.5793 129.83 17.0036 130.511 15.6475C131.201 14.2839 132.163 13.2233 133.398 12.4657C134.633 11.7006 136.083 11.318 137.75 11.318C138.826 11.318 139.841 11.4922 140.795 11.8407C141.758 12.1816 142.606 12.7119 143.341 13.4316C144.083 14.1513 144.667 15.068 145.091 16.1816C145.515 17.2877 145.727 18.6059 145.727 20.1362V21.3975H131.42V18.6248H141.784C141.777 17.8369 141.606 17.1362 141.273 16.5225C140.939 15.9013 140.473 15.4127 139.875 15.0566C139.284 14.7006 138.595 14.5225 137.807 14.5225C136.966 14.5225 136.227 14.7271 135.591 15.1362C134.955 15.5377 134.458 16.068 134.102 16.7271C133.754 17.3786 133.576 18.0945 133.568 18.8748V21.2953C133.568 22.3104 133.754 23.1816 134.125 23.9089C134.496 24.6286 135.015 25.1816 135.682 25.568C136.348 25.9468 137.129 26.1362 138.023 26.1362C138.621 26.1362 139.163 26.0528 139.648 25.8862C140.133 25.7119 140.553 25.4581 140.909 25.1248C141.265 24.7915 141.534 24.3786 141.716 23.8862L145.557 24.318C145.314 25.3331 144.852 26.2195 144.17 26.9771C143.496 27.7271 142.633 28.3104 141.58 28.7271C140.527 29.1362 139.322 29.3407 137.966 29.3407ZM156.821 29.3407C155.079 29.3407 153.582 28.9581 152.332 28.193C151.09 27.4278 150.132 26.371 149.457 25.0225C148.791 23.6665 148.457 22.1059 148.457 20.3407C148.457 18.568 148.798 17.0036 149.48 15.6475C150.162 14.2839 151.124 13.2233 152.366 12.4657C153.616 11.7006 155.094 11.318 156.798 11.318C158.215 11.318 159.469 11.5793 160.56 12.1021C161.658 12.6172 162.533 13.3483 163.185 14.2953C163.836 15.2346 164.207 16.3331 164.298 17.5907H160.366C160.207 16.7498 159.829 16.049 159.23 15.4884C158.639 14.9203 157.848 14.6362 156.855 14.6362C156.014 14.6362 155.276 14.8634 154.639 15.318C154.003 15.765 153.507 16.4089 153.151 17.2498C152.802 18.0907 152.628 19.0983 152.628 20.2725C152.628 21.4619 152.802 22.4846 153.151 23.3407C153.499 24.1892 153.988 24.8445 154.616 25.3066C155.253 25.7612 155.999 25.9884 156.855 25.9884C157.461 25.9884 158.003 25.8748 158.48 25.6475C158.965 25.4127 159.37 25.0756 159.696 24.6362C160.022 24.1968 160.245 23.6627 160.366 23.0339H164.298C164.2 24.2687 163.836 25.3634 163.207 26.318C162.579 27.265 161.723 28.0074 160.639 28.5453C159.556 29.0756 158.283 29.3407 156.821 29.3407ZM171.79 18.7725V28.9998H167.676V5.72705H171.699V14.5112H171.903C172.313 13.5263 172.945 12.7498 173.801 12.1816C174.665 11.6059 175.763 11.318 177.097 11.318C178.309 11.318 179.366 11.5718 180.267 12.0793C181.169 12.5869 181.866 13.3293 182.358 14.3066C182.858 15.2839 183.108 16.4771 183.108 17.8862V28.9998H178.994V18.5225C178.994 17.3483 178.691 16.4354 178.085 15.7839C177.487 15.1248 176.646 14.7953 175.562 14.7953C174.835 14.7953 174.184 14.9543 173.608 15.2725C173.04 15.5831 172.593 16.0339 172.267 16.6248C171.949 17.2157 171.79 17.9316 171.79 18.7725Z" fill="white"/>
</svg>
